<svg xmlns="http://www.w3.org/2000/svg" data-name="Layer 3" viewBox="0 0 64 80" x="0px" y="0px"><path d="M43.5,18.5c0-2.87-1.78-4.79-4.22-6.26-.82-.42-1.43,.3-.99,.58,3.55,1.71,5.58,5.5,3.2,8.75-2.13,2.8-6.21,3.98-9.48,5.29-2.54,1.08-6.35,1.97-7.44,4.64-.09,.32-.1,.68,0,1,.79,2.24,3.88,3.17,6.01,4.11-1.3,.49-2.63,1-3.88,1.59-.38,.17-.75,.35-1.11,.55-6.8,3.27-6.79,10.23,0,13.5-2.88,1.53-5.09,3.55-5.09,6.75,.09,3.3,4.91,3.3,5,0,.47-2.75,8.78-4.53,11.79-6.2,2.96,1.43,5.21,3.25,5.21,6.2,0,.83-.67,1.5-1.5,1.5s-1.5-.67-1.5-1.5c0-1.65-2.04-2.9-4.63-4.02-1.16-.51-1.59,.4-1.15,.61,2.52,1.02,4.78,2.19,4.78,3.41,0,1.38,1.12,2.5,2.5,2.5s2.5-1.12,2.5-2.5c0-3.2-2.21-5.23-5.09-6.75,6.8-3.28,6.79-10.22,0-13.5,6.79-3.28,6.8-10.23,0-13.5,2.88-1.52,5.09-3.55,5.09-6.75Zm-11.47,9.43c.49,.18,.98,.37,1.47,.57h-2.95c.49-.2,.99-.39,1.48-.57Zm-3.78,1.57h7.52c1.28,.63,2.27,1.3,2.61,2h-12.74c.34-.7,1.34-1.37,2.62-2Zm-2.63,3h12.75c-.34,.7-1.34,1.37-2.62,2h-7.51c-1.29-.63-2.29-1.31-2.62-2Zm4.88,3h2.96c-.49,.2-.99,.39-1.49,.57-.49-.19-.98-.38-1.47-.57Zm10.66,6.53c.13,.13,.24,.27,.33,.41,0,0,0,.02,.01,.02,1.32,1.66,1.32,4.46-.01,6.11-2.49,3.19-7.22,4.29-10.91,5.82-3.24,1.27-6.08,2.66-6.08,4.61,0,.83-.67,1.5-1.5,1.5s-1.5-.67-1.5-1.5c.01-4.95,6.49-6.75,10.51-8.36,2.52-1.09,6.34-1.96,7.42-4.64,.09-.32,.09-.68,0-1-.81-2.25-3.89-3.17-6.02-4.11,1.3-.49,2.63-1,3.88-1.59,1.57,.76,2.94,1.64,3.87,2.73Zm-9.17-.61c.49,.19,.99,.38,1.48,.58h-2.97c.5-.2,1-.39,1.49-.58Zm3.75,1.58c1.29,.63,2.3,1.3,2.63,2h-12.74c.34-.7,1.33-1.37,2.6-2h7.51Zm2.63,3c-.33,.69-1.33,1.36-2.6,2h-7.52c-1.28-.63-2.28-1.3-2.62-2h12.74Zm-4.86,3c-.5,.2-1,.39-1.5,.58-.49-.19-.99-.38-1.49-.58h2.99Zm8.99-17.01c-.01,4.96-6.49,6.76-10.51,8.37-1.32,.48-2.78,1.05-3.99,1.64h-2.71c-.28,0-.5,.22-.5,.5,.02,.72,1,.45,1.45,.5-.87,.6-1.48,1.26-1.67,2-.55,.06-1.57-.24-1.59,.5,.03,.74,1.03,.44,1.59,.5,.19,.74,.8,1.4,1.67,2-.45,.05-1.45-.22-1.46,.5,0,.27,.22,.5,.5,.5h2.72c.79,.39,1.67,.75,2.58,1.11-1.3,.49-2.63,1-3.88,1.59-2.96-1.44-5.21-3.26-5.21-6.2,.01-4.95,6.47-6.75,10.49-8.36,1.34-.48,2.78-1.05,4-1.64h3.01c.28,0,.5-.22,.5-.5s-.22-.5-.5-.5h-1.25c.87-.6,1.48-1.26,1.67-2,.56-.06,1.57,.24,1.59-.5-.02-.74-1.04-.44-1.59-.5-.19-.74-.8-1.4-1.67-2h1.24c.28,0,.5-.22,.5-.5s-.22-.5-.5-.5h-3c-.79-.39-1.67-.75-2.58-1.11,1.3-.49,2.63-1,3.88-1.59,2.95,1.43,5.2,3.25,5.2,6.19Z"/><path d="M20.5,32.01c0,2.69,1.58,4.56,3.8,5.99,.76,.49,1.59-.18,1-.54-.99-.59-1.84-1.24-2.49-2h-.01c-.1-.12-.2-.25-.29-.38-1.33-1.66-1.33-4.48,0-6.14,.09-.14,.2-.28,.33-.41,2.18-2.48,6.06-3.66,9.17-4.89,2.52-1.09,6.34-1.96,7.42-4.64,.09-.32,.09-.68,0-1-.81-2.25-3.89-3.17-6.02-4.11,1.3-.49,2.63-1,3.88-1.59,3.2-1.45,6.26-3.69,6.21-7.3,0-1.38-1.12-2.5-2.5-2.5s-2.5,1.12-2.5,2.5c-.47,2.75-8.78,4.53-11.79,6.2-2.96-1.43-5.21-3.25-5.21-6.2,0-.83,.67-1.5,1.5-1.5s1.5,.67,1.5,1.5c0,1.64,2.02,2.89,4.59,4,.98,.38,1.73-.38,1.09-.63-2.48-1.01-4.68-2.16-4.68-3.37,0-1.38-1.12-2.5-2.5-2.5s-2.5,1.12-2.5,2.5c0,3.2,2.21,5.23,5.09,6.75-6.8,3.28-6.79,10.22,0,13.5-2.88,1.53-5.09,3.56-5.09,6.76Zm11.51-9.43c-.49-.19-.99-.38-1.49-.58h2.99c-.5,.2-1,.39-1.5,.58Zm3.76-1.58h-7.52c-1.28-.63-2.28-1.3-2.62-2h12.74c-.33,.69-1.32,1.37-2.6,2Zm2.6-3h-12.74c.34-.69,1.34-1.37,2.61-2h7.5c1.29,.63,2.3,1.3,2.63,2Zm-4.9-3h-2.97c.49-.2,1-.39,1.49-.58,.49,.19,.99,.38,1.48,.58Zm-11.97,3.5c.14-5.5,7.6-7.05,11.92-8.89,3.24-1.27,6.08-2.66,6.08-4.61,0-.83,.67-1.5,1.5-1.5s1.5,.67,1.5,1.5c.09,3.36-3.24,5.4-6.41,6.76-1.31,.57-2.74,1.07-4.1,1.6-1.32,.48-2.78,1.05-3.99,1.64h-2.71c-.28,0-.5,.22-.5,.5,.01,.72,1,.45,1.45,.5-.87,.6-1.48,1.26-1.67,2-.55,.06-1.57-.24-1.59,.5,.02,.74,1.04,.44,1.59,.5,.19,.74,.8,1.4,1.67,2-.45,.05-1.45-.22-1.46,.5,0,.28,.22,.5,.5,.5h2.72c.79,.39,1.67,.75,2.58,1.11-1.3,.49-2.63,1-3.88,1.59-2.96-1.44-5.21-3.26-5.21-6.2Z"/><text x="0" y="79" fill="#000000" font-size="5px" font-weight="bold" font-family="'Helvetica Neue', Helvetica, Arial-Unicode, Arial, Sans-serif">Created by Fazrian Zahrawani</text><text x="0" y="84" fill="#000000" font-size="5px" font-weight="bold" font-family="'Helvetica Neue', Helvetica, Arial-Unicode, Arial, Sans-serif">from the Noun Project</text></svg>